<svg width="1040" height="480" viewBox="0 0 1040 480" fill="none" xmlns="http://www.w3.org/2000/svg">
<g opacity="0.4" clip-path="url(#clip0_14_429)">
<path d="M979.677 367.41C979.231 353.941 985.278 354.194 985.853 347.545C986.151 344.105 984.287 341.2 984.307 338.104C984.337 330.18 987.212 318.077 989.69 310.569C990.959 306.723 1000.06 289.034 999.772 287.82C999.454 286.494 995.39 285.29 993.883 282.709C992.575 280.463 987.41 265.01 987.33 262.44C987.033 252.745 993.655 256.905 995.945 252.28C997.561 249.022 996.094 244.387 997.016 240.754C998.354 235.482 1002.73 231.09 1002.93 224.583C1003.12 218.835 999.514 210.81 999.692 205.609C999.831 201.561 1003.19 200.002 1002.84 194.872C1002.03 182.658 990.136 172.224 990.483 159.17C977.853 166.618 981.016 158.259 976.178 153.27C973.303 150.305 962.329 146.278 958.165 144.052C954.16 141.906 954.24 136.553 947.637 139.811C936.852 145.124 957.67 159.443 961.813 165.566C963.35 167.832 971.618 183.285 970.398 184.398L961.129 184.418C960.247 188.608 963.598 196.177 967.365 197.877C972.232 200.073 978.21 193.637 978.289 205.68C978.319 210.254 973.739 216.477 980.431 217.53C981.452 217.277 986.349 203.706 990.493 208.078C993.239 210.972 985.843 222.023 985.724 226.273C985.645 228.853 991.325 229.997 990.513 234.065C989.511 239.064 980.897 230.665 981.402 240.45C981.66 245.5 987.519 248.596 987.42 253.818C985.308 252.634 975.771 254.081 975.256 253.707C973.224 252.209 965.779 232.517 963.41 228.651C960.921 224.593 948.926 211.822 945.01 209.576C941.095 207.329 937.357 208.26 932.807 206.256C919.057 200.225 918.651 186.655 896.673 181.625C893.778 180.968 886.383 181.787 885.6 181.089C885.134 180.674 885.183 177.041 884.261 175.422C882.11 171.658 877.966 169.826 877.728 165.495C886.393 162.236 894.413 168.986 902.522 166.365C920.911 160.415 889.496 143.019 881.892 144.902C879.84 145.408 880.058 151.095 876.202 149.698C874.863 138.951 859.022 139.528 853.936 135.683C851.369 133.74 855.255 128.559 842.576 123.276C831.235 118.54 824.91 121.596 815.453 119.41C812.132 118.641 809.237 115.059 805.202 114.108C797.678 112.327 791.413 116.658 789.856 105.941C787.943 92.7556 804.945 105.122 808.454 106.043C814.333 107.581 819.448 106.67 825.247 107.834C835.488 109.878 846.66 118.196 856.762 121.414C859.974 122.436 873.079 125.695 875.736 125.796C880.078 125.958 878.7 120.382 879.324 119.795C882.675 116.688 903.682 136.563 908.063 136.927C912.445 137.292 911.196 131.382 911.771 130.835C913.208 129.479 921.813 133.719 923.211 135.612C925.362 138.526 924.43 144.618 929.506 145.074C931.528 145.256 938.388 142.463 939.548 141.076C943.394 136.462 937.377 131.159 948.797 129.854C955.965 129.034 960.108 134.59 965.372 135.217C968.783 135.632 972.074 132.961 975.573 134.134C977.635 134.833 979.548 139.761 981.997 141.866C986.141 145.438 992.515 146.48 996.778 150.437C998.721 152.238 1025.87 189.903 1026.85 192.312C1030.57 201.531 1031.5 214.686 1034.18 224.269C1035.56 229.207 1042.12 231.262 1038.41 238.062C1033.81 235.977 1029.35 225.069 1025.68 233.721C1021.12 244.478 1023.75 263.766 1020.73 275.99C1018.33 285.685 1009.15 296.371 1007.84 302.271C1006.1 310.123 1002.48 320.85 1001.47 327.316C1000.36 334.41 1001.67 342.941 999.326 350.409C998.533 352.929 990.899 361.976 988.956 363.453C986.26 365.497 982.404 365.74 979.697 367.41H979.677Z" stroke="#147AF7" stroke-miterlimit="10"/>
<path d="M199.655 250.863C195.719 252.604 200.319 260.548 198.733 264.059C197.97 265.749 193.34 268.39 191.893 268.036C190.614 267.733 185.281 257.846 180.245 255.64C175.209 253.434 164.928 251.734 160.031 253.474C157.731 254.284 155.065 257.795 153.29 257.866C152.101 257.917 135.466 247.069 136.418 257.036C141.067 270.597 116.621 257.532 109.463 257.138C106.737 256.986 104.675 260.335 100.938 258.554C98.3404 257.32 98.3008 253.383 96.6056 251.592C93.8993 248.738 89.1607 247.686 87.9017 243.618C96.5858 242.98 105.825 245.692 113.914 241.068C113.984 240.491 106.37 233.863 105.428 233.468C101.83 231.96 95.644 235.067 92.4023 232.001C89.1607 228.934 95.3367 224.026 92.6403 221.719L1.14001 174.926C9.31853 171.02 14.3248 176.232 21.5417 176.687C25.7053 176.95 33.2692 172.589 35.7079 177.396C36.7983 179.551 34.1812 183.751 41.8641 182.739C43.0041 182.587 45.5419 173.044 52.1442 176.971C54.3945 180.067 41.1107 189.337 52.1145 191.249C64.2782 193.374 58.6771 193.516 67.4306 198.97C71.3166 201.389 75.5397 201.935 79.0887 204.101C83.5894 206.843 92.8088 219.139 93.81 219.503C95.5449 220.141 100.482 218.106 103.753 218.4C108.442 218.825 128.616 221.8 130.301 225.646C131.986 229.491 124.74 231.899 138.618 232.375C142.039 232.486 145.558 231.353 149.037 231.383C158.306 231.444 169.35 238.335 166.634 222.316C168.329 221.223 178.767 227.659 179.868 229.42C181.504 232.051 179.977 235.381 180.393 235.967C180.701 236.403 189.305 238.912 190.525 239.094C199.199 240.339 199.853 234.571 208.151 243.537C220.513 256.874 202.589 249.609 199.665 250.894L199.655 250.863Z" stroke="#147AF7" stroke-miterlimit="10"/>
<path d="M202.153 112.266C202.897 112.721 203.234 115.322 204.562 116.192C213.801 122.254 220.116 127.03 226.312 136.968C218.312 138.972 210.341 128.609 203.471 124.845C193.211 136.432 203.432 140.874 207.566 150.508C212.384 161.74 211.581 175.877 223.893 182.496C228.067 184.742 233.509 182.405 239.07 187.363C242.867 190.743 242.887 195.772 245.336 197.736C249.806 201.308 257.737 197.321 255.536 208.746C242.798 209.636 236.265 197.786 228.166 190.106C217.479 210.385 234.56 211.144 243.68 225.494C253.673 208.746 254.426 230.614 262.357 232.719C266.054 233.701 270.565 231.009 274.748 230.938C277.395 230.897 284.384 233.417 284.761 232.982C288.399 228.722 275.175 222.539 275.641 218.096C285.346 213.492 295.933 219.715 303.676 225.807C310.625 231.272 320.786 238.396 326.655 243.375C328.251 244.731 344.499 262.511 345.034 263.786C348.038 271.001 331.463 261.56 329.837 260.639C324.613 257.664 309.544 245.814 305.391 244.559C300.196 242.99 295.695 245.763 291.849 245.055C285.564 243.891 271.328 236.868 264.964 235.836C249.36 233.296 257.261 244.174 264.805 248.718C276.533 255.791 278.129 257.583 288.548 265.506C296.023 271.193 318.159 278.854 321.312 282.406C324.028 285.472 322.243 289.621 326.813 293.568C327.607 294.246 334.556 298.273 335.022 298.233C336.905 298.03 336.618 290.451 342.288 292.687C347.899 294.903 343.547 303.232 339.661 304.679C327.15 309.324 300.493 283.64 289.698 277.376C285.485 274.928 278.188 270.859 273.856 269.291C271.15 268.309 265.271 268.765 264.786 268.299C264.141 267.682 264.488 254.395 256.439 253.545C247.447 273.642 240.904 255.174 234.421 246.158C229.078 238.73 222.862 231.656 217.469 224.31C213.335 218.683 212.364 212.176 204.403 207.805C227.65 208.665 209.092 198.171 207.417 193.334C205.9 188.942 209.142 186.463 206.386 181.646C198.664 168.146 175.179 166.709 178.827 149.081C186.252 147.148 188.254 159.342 195.243 155.618C188.978 148.292 196.155 141.329 191.209 131.756C188.106 125.755 183.169 126.697 180.641 123.904C180.225 123.448 175.853 114.27 175.189 112.671C174.168 110.181 175.179 109.706 177.588 110.202C183.645 111.426 200.607 111.295 202.143 112.246L202.153 112.266Z" stroke="#147AF7" stroke-miterlimit="10"/>
<path d="M974.324 382.215C974.512 387.993 977.457 394.237 975.058 399.539C973.64 402.687 965.551 408.333 962.825 412.29C958.225 418.969 957.511 426.943 954.002 433.258C949.57 441.252 938.477 449.328 934.661 456.108C930.824 462.928 930.497 473.129 924.876 478.442C927.275 469.182 922.665 470.052 920.931 467.421C919.731 465.59 923.677 455.227 925.074 452.637C930.447 442.679 942.909 429.574 947.677 420.497C950.244 415.609 956.896 397.404 948.044 398.781C953.357 389.541 959.285 391.808 966.195 388.924C968.872 387.801 971.32 384.067 974.304 382.215H974.324Z" stroke="#147AF7" stroke-miterlimit="10"/>
<path d="M789.678 126.616C774.223 129.156 759.958 117.599 745.425 115.616C730.703 113.612 710.936 117.326 700.497 103.877C705.692 102.916 710.371 104.788 715.219 105.314C720.592 105.891 727.323 107.894 730.555 108.036C735.075 108.238 739.824 105.273 745.494 107.004C748.706 107.985 750.887 113.835 755.814 114.948C761.742 116.283 771.031 114.32 776.493 116.526C780.221 118.034 786.545 123.61 789.668 126.605L789.678 126.616Z" stroke="#147AF7" stroke-miterlimit="10"/>
<path d="M241.806 285.239C243.313 285.938 245.018 285.948 246.565 286.575C249.103 287.597 250.481 290.198 253.792 288.68C253.613 285.007 246.198 279.744 250.6 277.569C255.636 275.079 255.279 281.252 256.399 282.537C257.886 284.248 270.684 282.446 269.286 290.259L263.239 291.433L265.251 297.423C268.295 296.907 268.602 294.205 272.062 294.468C275.908 294.762 280.32 300.247 282.877 300.854C286.635 301.744 292.166 298.789 295.239 304.861L288.597 310.265C280.766 313.301 269.108 304.79 261.782 303.171C257.866 302.311 254.535 304.193 251.065 300.085C249.35 298.041 249.37 294.64 246.406 294.63C241.876 294.63 240.25 297.626 242.58 301.532C247.457 309.698 257.906 305.529 263.199 311.176C264.379 312.431 264.716 314.576 266.312 315.517C267.67 316.316 269.841 315.972 271.477 316.782C274.124 318.098 278.436 322.439 281.103 322.631C283.561 322.813 281.133 319.696 282.451 318.199C285.881 314.313 298.868 324.685 301.951 325.272C305.272 325.9 307.512 323.026 313.381 326.062C318.129 328.511 315.701 332.194 318.932 336.333C320.053 336.92 323.413 331.708 323.354 331.374C323.225 330.676 316.444 328.217 320.31 326.132C321.768 325.343 336.31 325.697 338.957 326.051C345.223 326.891 355.919 331.334 360.747 331.779C363.017 331.992 369.58 329.259 372.603 329.684C373.367 329.391 372.603 326.598 372.95 325.232C374.259 320.142 390.308 314.687 394.938 312.147C396.514 311.287 397.436 309.091 399.28 308.271C404.197 306.086 410.095 308.413 415.796 306.723C419.91 305.509 423.568 301.593 428.128 300.672C442.413 297.767 465.957 294.671 479.539 301.34C481.878 302.493 484.029 304.487 480.758 305.873C479.558 306.379 476.634 305.013 474.532 305.408C473.561 305.59 463.38 309.283 462.131 309.83C459.801 310.842 457.283 314.556 454.041 315.709C447.409 318.067 440.123 317.764 432.956 320.982C427.444 323.461 422.794 325.323 417.184 327.65C412.96 329.401 404.455 335.473 400.638 335.007C399.002 334.805 398.358 332.852 395.701 333.327C393.045 333.803 391.726 336.495 389.922 337.082C387.166 337.993 382.249 339.227 378.968 340.178C362.987 344.803 350.873 343.447 334.605 342.668C332.682 342.577 330.69 343.538 328.885 343.356C326.397 343.103 322.164 337.608 319.696 338.033C317.505 338.407 312.35 342.658 313.906 345.511C310.942 345.107 310.962 342.536 308.513 341.2C304.647 339.085 298.461 339.713 294.397 338.701C288.32 337.183 275.75 331.921 270.218 328.753C265.123 325.829 258.054 319.029 253.534 316.59C251.274 315.375 247.526 316.013 244.334 314.616C240.191 312.805 235.591 308.494 231.655 306.025C228.929 304.315 224.557 304.173 223.011 300.328C220.77 294.792 227.204 296.796 230.257 294.165C231.447 293.143 235.293 286.869 232.726 285.857C228.185 284.066 223.159 290.269 218.897 290.886C216.012 291.301 207.685 286.95 207.298 292.758C206.911 298.567 213.246 290.795 217.162 293.406C221.702 296.421 220.78 299.781 215.367 300.682C213.206 301.036 205.95 298.779 203.69 297.808C201.895 297.029 200.299 294.499 199.694 294.489C198.277 294.458 196.641 295.683 195.085 295.804C188.106 296.361 180.601 295.784 174.782 291.584C175.288 287.8 183.694 286.191 184.22 285.502C184.517 285.108 183.952 282.193 185.033 281.88C186.51 281.445 192.507 287.284 194.787 286.363C196.82 285.543 194.728 283.185 194.549 282.214C193.826 278.308 200.18 279.927 202.421 279.451C204.314 279.046 205.9 277.731 208.279 277.346C216.458 276.01 214.287 280.2 216.726 281.677C217.053 281.87 223.437 283.104 224.121 283.084C227.313 283.013 228.136 280.979 230.436 280.422C232.736 279.866 236.939 281.789 239.259 282.851C240.518 283.428 241.152 284.926 241.787 285.219L241.806 285.239Z" stroke="#147AF7" stroke-miterlimit="10"/>
<path d="M519.846 328.926C522.364 330.545 542.27 325.333 550.32 328.713C551.331 329.138 552.293 330.696 553.621 331.415C556.902 333.166 560.679 331.769 560.293 338.256C553.631 338.792 550.756 330.454 543.45 334.228C543.113 341.2 551.034 339.47 555.257 341.879C557.12 342.941 559.282 345.957 561.532 347.616C564.516 349.802 567.985 349.316 569.185 352.939L553.145 355.257C548.139 354.427 542.617 351.603 537.898 350.49C530.682 348.79 519.42 348.092 512.649 345.906C510.736 345.289 509.655 343.032 508.03 342.526C506.404 342.02 504.015 342.729 502.726 341.848C501.744 341.17 502.23 339.015 501.169 338.175C500.733 337.831 491.732 333.54 491.197 333.419C483.831 331.719 473.71 335.503 467.137 328.652C470.2 324.341 478.498 321.225 483.474 321.235C488.996 321.245 489.155 321.741 495.489 321.093C501.001 320.526 506.364 324.524 511.46 325.89C513.631 326.477 516.218 325.637 518.062 326.264C519.361 326.709 519.38 328.622 519.856 328.936L519.846 328.926Z" stroke="#147AF7" stroke-miterlimit="10"/>
<path d="M520.471 336.019C521.036 335.665 520.709 333.469 523.128 333.125C524.079 332.983 532.625 334.997 533.775 335.483C536.788 336.738 537.066 339.905 538.493 340.786C541.755 342.789 548.407 338.752 550.33 345.866C544.075 352.018 535.856 342.01 528.957 341.342C525.15 340.978 523.019 343.062 520.332 343.012C519.509 342.992 510.28 341.332 509.467 341.079C506.85 340.249 506.235 336.788 504.183 335.341C501.645 333.56 496.5 333.621 494.885 330.17C500.01 331.04 506.959 331.304 511.807 332.619C514.781 333.429 517.933 337.638 520.481 336.019H520.471Z" stroke="#147AF7" stroke-miterlimit="10"/>
<path d="M837.361 70.1891L828.875 70.2499C827.022 83.0207 831.344 78.8414 836.419 83.1523C839.274 85.5708 844.538 94.2939 847.612 97.6941C852.767 103.391 861.193 107.227 862.065 115.029C860.767 115.393 859.706 115.423 858.407 114.958C854.452 113.531 842.1 102.187 837.203 98.8376C834.883 97.2488 831.859 97.178 829.292 95.1035C824.018 90.8532 816.682 78.3151 811.993 74.3584C810.585 73.1643 807.215 72.6887 805.232 71.2416C794.327 63.2573 786.496 53.6943 774.193 46.7422C770.327 44.5564 755.358 40.4782 754.525 36.0053C754.248 34.538 755.685 31.3099 754.793 30.3688C753.177 28.6788 740.309 27.677 737.613 26.918C736.463 26.5942 726.272 22.7589 725.311 22.2934C723.615 21.4838 719.491 16.1711 717.271 14.7341C721.058 14.643 729.127 12.2953 732.527 13.3578C736.364 14.5418 738.158 19.3891 742.55 20.148C750.173 19.5611 768.8 30.0045 774.699 28.5978C779.289 27.5049 776.007 19.045 774.104 16.2419C772.657 14.1067 767.859 12.5685 765.39 10.6964C760.83 7.24562 758.362 3.42043 751.938 1.44712C752.582 -0.435112 755.031 0.991743 756.24 1.37629C779.507 8.90522 792.146 25.3292 808.295 42.2491C810.03 44.0605 810.565 46.8231 812.261 48.4625C817.415 53.4514 821.559 53.927 829.024 61.9114C831.691 64.7752 835.547 66.364 837.341 70.1689L837.361 70.1891Z" stroke="#147AF7" stroke-miterlimit="10"/>
<path d="M811.16 55.0909C816.127 58.0458 824.88 56.1028 825.921 66.9307C816.494 69.5314 812.142 60.4643 805.718 57.4791C802.882 56.1534 799.829 56.7707 796.568 54.7164C792.305 52.0449 784.206 45.3154 779.973 41.8241C778.555 40.6604 777.722 41.3586 777.921 38.0394C780.558 34.3357 804.062 49.2721 807.958 51.5389C809.455 52.4092 810.208 54.5242 811.17 55.101L811.16 55.0909Z" stroke="#147AF7" stroke-miterlimit="10"/>
<path d="M787.943 31.5427L783.175 32.2511L782.659 28.608C784.82 27.9907 786.149 28.011 787.675 29.7414L787.943 31.5427Z" stroke="#147AF7" stroke-miterlimit="10"/>
</g>
<defs>
<clipPath id="clip0_14_429">
<rect width="1040" height="480" fill="white"/>
</clipPath>
</defs>
</svg>
