<svg width="954" height="440" viewBox="0 0 954 440" fill="none" xmlns="http://www.w3.org/2000/svg">
<g clip-path="url(#clip0_14_429)">
<path opacity="0.4" d="M898.665 336.793C898.256 324.446 903.803 324.678 904.331 318.583C904.604 315.429 902.894 312.767 902.912 309.929C902.939 302.665 905.577 291.571 907.85 284.688C909.014 281.163 917.362 264.948 917.098 263.835C916.807 262.62 913.079 261.516 911.697 259.151C910.496 257.091 905.759 242.926 905.686 240.57C905.413 231.684 911.487 235.496 913.588 231.257C915.07 228.27 913.724 224.021 914.57 220.691C915.798 215.858 919.808 211.832 919.999 205.868C920.172 200.599 916.862 193.243 917.025 188.475C917.153 184.764 920.235 183.336 919.917 178.633C919.172 167.436 908.259 157.872 908.578 145.906C896.992 152.733 899.893 145.071 895.455 140.498C892.818 137.78 882.752 134.088 878.932 132.047C875.259 130.081 875.331 125.174 869.275 128.161C859.381 133.031 878.478 146.157 882.279 151.769C883.688 153.847 891.272 168.011 890.154 169.032L881.651 169.05C880.842 172.891 883.916 179.829 887.371 181.388C891.836 183.401 897.32 177.501 897.392 188.54C897.42 192.733 893.218 198.438 899.357 199.402C900.293 199.17 904.786 186.731 908.587 190.738C911.106 193.391 904.322 203.521 904.213 207.417C904.14 209.782 909.35 210.831 908.605 214.56C907.686 219.142 899.784 211.443 900.248 220.413C900.484 225.042 905.859 227.88 905.768 232.667C903.831 231.582 895.083 232.908 894.61 232.565C892.746 231.192 885.916 213.14 883.743 209.597C881.46 205.877 870.457 194.17 866.865 192.111C863.273 190.052 859.845 190.905 855.671 189.068C843.058 183.54 842.685 171.1 822.525 166.49C819.869 165.887 813.086 166.639 812.367 165.998C811.94 165.618 811.985 162.288 811.14 160.804C809.166 157.353 805.365 155.674 805.147 151.704C813.095 148.717 820.451 154.904 827.89 152.502C844.759 147.047 815.941 131.101 808.966 132.827C807.084 133.29 807.284 138.504 803.747 137.224C802.519 127.372 787.987 127.901 783.322 124.376C780.967 122.595 784.532 117.845 772.901 113.003C762.498 108.662 756.696 111.463 748.021 109.46C744.975 108.755 742.319 105.471 738.618 104.599C731.716 102.966 725.969 106.937 724.541 97.1131C722.786 85.0261 738.382 96.3617 741.601 97.2059C746.993 98.6158 751.686 97.781 757.005 98.8477C766.399 100.722 776.648 108.347 785.914 111.296C788.86 112.233 800.882 115.22 803.319 115.313C807.302 115.461 806.038 110.35 806.611 109.812C809.685 106.964 828.954 125.183 832.973 125.517C836.993 125.851 835.847 120.434 836.374 119.933C837.693 118.69 845.586 122.576 846.868 124.311C848.842 126.983 847.987 132.567 852.643 132.984C854.498 133.151 860.791 130.591 861.855 129.32C865.383 125.09 859.863 120.229 870.339 119.033C876.914 118.281 880.715 123.374 885.543 123.949C888.672 124.33 891.691 121.881 894.901 122.957C896.792 123.597 898.547 128.114 900.793 130.044C904.595 133.318 910.442 134.274 914.352 137.901C916.134 139.552 941.042 174.078 941.933 176.286C945.352 184.736 946.207 196.796 948.662 205.58C949.926 210.107 955.946 211.99 952.545 218.224C948.326 216.313 944.234 206.313 940.86 214.244C936.677 224.105 939.096 241.785 936.322 252.991C934.121 261.878 925.701 271.673 924.5 277.082C922.9 284.28 919.581 294.113 918.653 300.04C917.635 306.543 918.835 314.363 916.689 321.209C915.962 323.518 908.959 331.811 907.177 333.166C904.704 335.039 901.166 335.262 898.684 336.793H898.665Z" stroke="#147AF7" stroke-miterlimit="10"/>
<path opacity="0.4" d="M183.145 229.958C179.535 231.554 183.754 238.835 182.299 242.054C181.599 243.603 177.352 246.025 176.025 245.7C174.852 245.422 169.959 236.359 165.34 234.336C160.72 232.314 151.29 230.756 146.798 232.351C144.688 233.093 142.242 236.312 140.614 236.377C139.523 236.424 124.264 226.479 125.137 235.617C129.402 248.047 106.977 236.071 100.411 235.709C97.9108 235.57 96.0193 238.641 92.591 237.008C90.2085 235.876 90.1721 232.268 88.6171 230.626C86.1345 228.01 81.7878 227.045 80.6329 223.316C88.5989 222.732 97.0741 225.218 104.495 220.979C104.558 220.45 97.5743 214.374 96.7104 214.012C93.4094 212.63 87.735 215.478 84.7614 212.667C81.7878 209.856 87.4531 205.357 84.9797 203.242L1.04578 160.349C8.54799 156.769 13.1403 161.546 19.7604 161.963C23.5797 162.204 30.5181 158.206 32.7551 162.613C33.7554 164.588 31.3547 168.438 38.4023 167.51C39.448 167.371 41.776 158.624 47.8323 162.223C49.8966 165.061 37.7112 173.559 47.805 175.312C58.9629 177.26 53.825 177.39 61.8546 182.389C65.4193 184.607 69.2932 185.107 72.5487 187.093C76.6772 189.606 85.1343 200.877 86.0527 201.211C87.6441 201.795 92.1727 199.931 95.1736 200.2C99.4749 200.589 117.98 203.317 119.526 206.842C121.072 210.367 114.425 212.574 127.156 213.01C130.293 213.112 133.521 212.073 136.713 212.101C145.216 212.157 155.346 218.474 152.854 203.79C154.409 202.788 163.985 208.688 164.994 210.302C166.495 212.714 165.094 215.765 165.476 216.303C165.758 216.702 173.651 219.003 174.77 219.17C182.727 220.311 183.327 215.023 190.938 223.242C202.278 235.468 185.837 228.808 183.154 229.986L183.145 229.958Z" stroke="#147AF7" stroke-miterlimit="10"/>
<path opacity="0.4" d="M185.437 102.911C186.119 103.328 186.428 105.712 187.646 106.51C196.122 112.066 201.914 116.445 207.598 125.554C200.259 127.391 192.948 117.892 186.646 114.441C177.234 125.062 186.61 129.135 190.402 137.966C194.821 148.262 194.085 161.221 205.379 167.288C209.207 169.347 214.2 167.204 219.301 171.75C222.784 174.848 222.802 179.458 225.048 181.258C229.15 184.532 236.424 180.878 234.406 191.35C222.72 192.167 216.728 181.304 209.298 174.264C199.495 192.853 215.164 193.549 223.53 206.703C232.696 191.35 233.387 211.396 240.662 213.326C244.054 214.226 248.192 211.758 252.029 211.693C254.457 211.656 260.868 213.966 261.214 213.567C264.551 209.662 252.42 203.994 252.848 199.922C261.75 195.701 271.462 201.406 278.564 206.99C284.939 211.999 294.26 218.53 299.643 223.094C301.107 224.337 316.012 240.635 316.503 241.804C319.258 248.418 304.054 239.763 302.562 238.919C297.77 236.192 283.948 225.329 280.137 224.179C275.372 222.741 271.244 225.283 267.716 224.634C261.95 223.567 248.892 217.129 243.054 216.183C228.74 213.855 235.988 223.827 242.908 227.992C253.666 234.476 255.13 236.118 264.687 243.381C271.544 248.594 291.85 255.616 294.742 258.872C297.233 261.683 295.597 265.486 299.789 269.104C300.516 269.725 306.891 273.417 307.318 273.38C309.046 273.195 308.782 266.247 313.984 268.297C319.131 270.328 315.139 277.963 311.574 279.289C300.098 283.547 275.645 260.004 265.742 254.262C261.877 252.017 255.185 248.288 251.211 246.85C248.728 245.95 243.336 246.368 242.89 245.941C242.299 245.375 242.617 233.196 235.233 232.416C226.985 250.839 220.984 233.91 215.036 225.645C210.135 218.836 204.433 212.352 199.486 205.617C195.694 200.46 194.803 194.495 187.501 190.488C208.825 191.276 191.802 181.657 190.265 177.223C188.874 173.197 191.848 170.924 189.32 166.509C182.236 154.134 160.693 152.817 164.039 136.658C170.851 134.886 172.687 146.064 179.098 142.65C173.351 135.934 179.935 129.552 175.397 120.777C172.551 115.276 168.022 116.139 165.704 113.578C165.322 113.161 161.311 104.747 160.702 103.282C159.765 101 160.693 100.564 162.903 101.018C168.459 102.141 184.018 102.02 185.428 102.892L185.437 102.911Z" stroke="#147AF7" stroke-miterlimit="10"/>
<path opacity="0.4" d="M893.755 350.364C893.928 355.661 896.629 361.384 894.428 366.245C893.128 369.13 885.707 374.306 883.206 377.933C878.987 384.055 878.332 391.365 875.113 397.153C871.048 404.481 860.873 411.884 857.372 418.099C853.852 424.351 853.552 433.702 848.396 438.572C850.597 430.084 846.368 430.882 844.777 428.47C843.677 426.791 847.296 417.292 848.578 414.917C853.507 405.789 864.937 393.777 869.311 385.456C871.667 380.975 877.768 364.287 869.648 365.549C874.522 357.08 879.96 359.158 886.298 356.514C888.754 355.484 891 352.061 893.737 350.364H893.755Z" stroke="#147AF7" stroke-miterlimit="10"/>
<path opacity="0.4" d="M724.378 116.064C710.201 118.393 697.115 107.799 683.784 105.981C670.28 104.144 652.147 107.549 642.572 95.2206C647.337 94.3394 651.629 96.0555 656.076 96.5378C661.004 97.0666 667.179 98.9033 670.144 99.0332C674.29 99.2187 678.646 96.5007 683.848 98.087C686.794 98.9868 688.795 104.348 693.314 105.369C698.752 106.593 707.273 104.794 712.283 106.816C715.703 108.198 721.504 113.309 724.369 116.055L724.378 116.064Z" stroke="#147AF7" stroke-miterlimit="10"/>
<path opacity="0.4" d="M221.811 261.469C223.193 262.109 224.757 262.119 226.176 262.694C228.504 263.631 229.768 266.015 232.805 264.623C232.641 261.256 225.839 256.432 229.877 254.438C234.496 252.156 234.169 257.815 235.197 258.993C236.561 260.56 248.301 258.909 247.018 266.07L241.471 267.146L243.317 272.638C246.109 272.165 246.391 269.688 249.565 269.929C253.093 270.198 257.14 275.226 259.486 275.783C262.932 276.599 268.006 273.89 270.825 279.456L264.733 284.409C257.549 287.192 246.855 279.391 240.135 277.907C236.543 277.118 233.487 278.844 230.304 275.078C228.731 273.204 228.749 270.087 226.03 270.078C221.875 270.078 220.383 272.823 222.52 276.404C226.994 283.89 236.579 280.068 241.435 285.244C242.517 286.395 242.826 288.361 244.29 289.224C245.536 289.957 247.528 289.641 249.028 290.383C251.456 291.589 255.412 295.569 257.858 295.745C260.113 295.912 257.885 293.055 259.095 291.682C262.241 288.12 274.154 297.628 276.982 298.166C280.028 298.741 282.083 296.107 287.467 298.89C291.822 301.135 289.595 304.511 292.559 308.305C293.587 308.843 296.669 304.066 296.615 303.76C296.497 303.12 290.277 300.866 293.823 298.955C295.16 298.231 308.5 298.556 310.928 298.88C316.675 299.65 326.487 303.723 330.916 304.131C332.998 304.326 339.018 301.821 341.792 302.211C342.492 301.942 341.792 299.381 342.11 298.129C343.31 293.463 358.033 288.463 362.28 286.135C363.726 285.346 364.571 283.333 366.263 282.582C370.773 280.578 376.184 282.712 381.413 281.163C385.186 280.05 388.542 276.46 392.725 275.616C405.829 272.953 427.426 270.115 439.884 276.228C442.031 277.285 444.004 279.113 441.003 280.384C439.903 280.847 437.22 279.595 435.292 279.957C434.401 280.124 425.062 283.51 423.916 284.011C421.779 284.938 419.469 288.343 416.496 289.4C410.412 291.561 403.728 291.283 397.154 294.233C392.098 296.506 387.833 298.213 382.686 300.346C378.812 301.951 371.01 307.517 367.509 307.09C366.008 306.904 365.417 305.114 362.98 305.55C360.543 305.986 359.333 308.454 357.678 308.992C355.15 309.826 350.64 310.958 347.63 311.83C332.971 316.069 321.859 314.826 306.936 314.112C305.172 314.029 303.344 314.91 301.689 314.743C299.407 314.511 295.524 309.474 293.259 309.864C291.25 310.207 286.521 314.103 287.949 316.719C285.23 316.348 285.248 313.991 283.002 312.767C279.455 310.828 273.781 311.403 270.052 310.476C264.478 309.084 252.947 304.261 247.873 301.357C243.199 298.676 236.715 292.443 232.569 290.207C230.495 289.094 227.058 289.678 224.13 288.398C220.329 286.738 216.109 282.786 212.499 280.523C209.998 278.955 205.988 278.825 204.569 275.3C202.514 270.226 208.416 272.063 211.217 269.651C212.308 268.714 215.836 262.963 213.481 262.035C209.316 260.393 204.706 266.08 200.796 266.645C198.149 267.026 190.511 263.037 190.156 268.362C189.801 273.686 195.612 266.562 199.204 268.955C203.369 271.72 202.523 274.799 197.558 275.625C195.576 275.95 188.919 273.881 186.846 272.99C185.2 272.276 183.736 269.957 183.181 269.948C181.881 269.92 180.38 271.042 178.953 271.154C172.551 271.664 165.667 271.135 160.329 267.286C160.793 263.816 168.504 262.341 168.986 261.711C169.259 261.349 168.741 258.677 169.732 258.39C171.087 257.991 176.588 263.343 178.68 262.499C180.544 261.748 178.625 259.586 178.462 258.696C177.798 255.115 183.627 256.599 185.682 256.163C187.419 255.792 188.874 254.586 191.056 254.234C198.559 253.009 196.567 256.85 198.804 258.204C199.104 258.38 204.96 259.512 205.588 259.493C208.516 259.429 209.271 257.564 211.381 257.054C213.49 256.544 217.346 258.306 219.474 259.28C220.629 259.809 221.211 261.182 221.793 261.451L221.811 261.469Z" stroke="#147AF7" stroke-miterlimit="10"/>
<path opacity="0.4" d="M476.859 301.515C479.169 302.999 497.429 298.222 504.813 301.32C505.74 301.71 506.622 303.138 507.841 303.797C510.851 305.402 514.315 304.122 513.961 310.068C507.85 310.559 505.213 302.916 498.511 306.376C498.202 312.767 505.467 311.181 509.341 313.389C511.051 314.363 513.033 317.127 515.098 318.648C517.835 320.652 521.017 320.207 522.118 323.528L507.404 325.652C502.812 324.891 497.747 322.303 493.418 321.283C486.798 319.724 476.468 319.084 470.257 317.081C468.502 316.515 467.511 314.446 466.019 313.982C464.528 313.519 462.336 314.168 461.154 313.361C460.254 312.739 460.7 310.763 459.727 309.994C459.326 309.678 451.07 305.745 450.578 305.634C443.822 304.075 434.537 307.545 428.508 301.265C431.318 297.313 438.93 294.456 443.495 294.465C448.56 294.474 448.705 294.929 454.516 294.335C459.572 293.816 464.492 297.48 469.166 298.732C471.157 299.27 473.531 298.5 475.222 299.075C476.413 299.484 476.432 301.237 476.868 301.524L476.859 301.515Z" stroke="#147AF7" stroke-miterlimit="10"/>
<path opacity="0.4" d="M477.432 308.018C477.95 307.693 477.65 305.68 479.869 305.365C480.742 305.235 488.581 307.081 489.636 307.526C492.4 308.676 492.655 311.58 493.964 312.387C496.956 314.223 503.058 310.522 504.822 317.043C499.084 322.683 491.545 313.509 485.216 312.897C481.724 312.563 479.769 314.474 477.305 314.428C476.55 314.409 468.084 312.888 467.338 312.656C464.937 311.895 464.374 308.723 462.491 307.396C460.163 305.764 455.444 305.819 453.961 302.656C458.663 303.454 465.037 303.695 469.484 304.901C472.212 305.643 475.104 309.502 477.441 308.018H477.432Z" stroke="#147AF7" stroke-miterlimit="10"/>
<path opacity="0.4" d="M768.118 64.3401L760.334 64.3958C758.633 76.1024 762.598 72.2713 767.254 76.223C769.873 78.44 774.702 86.4361 777.521 89.553C782.249 94.7755 789.979 98.2912 790.779 105.443C789.588 105.777 788.615 105.805 787.424 105.378C783.795 104.07 772.465 93.6716 767.972 90.6012C765.844 89.1448 763.071 89.0799 760.716 87.1782C755.878 83.2822 749.149 71.789 744.847 68.1619C743.556 67.0673 740.464 66.6314 738.646 65.3049C728.643 57.9859 721.459 49.2198 710.173 42.8471C706.627 40.8434 692.896 37.1051 692.132 33.005C691.877 31.6599 693.196 28.7008 692.377 27.8381C690.895 26.289 679.092 25.3706 676.618 24.6749C675.563 24.3781 666.215 20.8624 665.333 20.4357C663.778 19.6936 659.995 14.8235 657.958 13.5063C661.432 13.4228 668.834 11.2707 671.953 12.2447C675.472 13.3301 677.118 17.7734 681.147 18.4691C688.14 17.9311 705.227 27.5042 710.637 26.2148C714.848 25.2129 711.838 17.458 710.092 14.8885C708.764 12.9312 704.363 11.5212 702.098 9.8051C697.915 6.6419 695.651 3.13548 689.758 1.32661C690.349 -0.398772 692.596 0.909179 693.705 1.26168C715.048 8.1632 726.642 23.2185 741.455 38.7284C743.047 40.3889 743.538 42.9213 745.093 44.424C749.822 48.9972 753.623 49.4332 760.47 56.7522C762.916 59.3773 766.454 60.8337 768.1 64.3216L768.118 64.3401Z" stroke="#147AF7" stroke-miterlimit="10"/>
<path opacity="0.4" d="M744.083 50.4999C748.639 53.2085 756.669 51.4275 757.624 61.3531C748.976 63.7371 744.984 55.4256 739.091 52.6891C736.49 51.4739 733.689 52.0397 730.698 50.1566C726.787 47.7077 719.358 41.539 715.475 38.3387C714.175 37.272 713.411 37.912 713.593 34.8694C716.011 31.4743 737.572 45.166 741.146 47.2439C742.519 48.0417 743.21 49.9804 744.092 50.5091L744.083 50.4999Z" stroke="#147AF7" stroke-miterlimit="10"/>
<path opacity="0.4" d="M722.786 28.9141L718.412 29.5635L717.939 26.224C719.922 25.6582 721.14 25.6767 722.541 27.263L722.786 28.9141Z" stroke="#147AF7" stroke-miterlimit="10"/>
</g>
<defs>
<clipPath id="clip0_14_429">
<rect width="954" height="440" fill="white"/>
</clipPath>
</defs>
</svg>
